<svg aria-label="Logo" class="w-full h-auto" width="293" height="67" viewBox="0 0 293 67" fill="none" xmlns="http://www.w3.org/2000/svg">
<path d="M20.7307 2.3871C21.3735 2.4216 21.9907 2.65048 22.5006 3.04345C23.5581 3.79861 24.3634 4.79713 25.1554 5.80598C26.3826 7.36645 27.5699 8.96085 28.8427 10.483C29.3982 11.1267 30.0365 11.6941 30.741 12.1703C32.0168 13.0552 33.2557 12.9874 34.5109 12.0729C35.383 11.4092 36.1319 10.5975 36.7233 9.67471C37.7189 8.19979 38.6658 6.67766 39.6451 5.18504C40.3206 4.15259 41.0197 3.14227 41.9711 2.33991C42.4917 1.89743 43.064 1.56409 43.7793 1.54345C44.7513 1.5169 45.474 2.01837 46.0743 2.68504C46.5888 3.29385 47.0693 3.93051 47.5138 4.59212C47.5405 4.64686 47.5536 4.70728 47.5518 4.76817C47.55 4.82906 47.5334 4.8886 47.5035 4.94168C45.0315 8.06999 42.561 11.2072 40.0433 14.3045C38.5787 16.1069 37.033 17.8443 35.266 19.3635C34.8291 19.7244 34.3694 20.0569 33.8899 20.3591C33.6272 20.5483 33.3158 20.6583 32.9926 20.6764C32.6693 20.6944 32.3476 20.6196 32.0655 20.4608C31.4126 20.1267 30.785 19.7451 30.1879 19.3193C28.4091 18.0021 26.8236 16.4594 25.3118 14.8517C22.7425 12.1201 20.2174 9.3458 17.6746 6.59212C17.6599 6.57589 17.6451 6.56114 17.6318 6.54492C17.0861 5.96822 17.0846 5.96822 17.474 5.25583C17.8781 4.51837 18.3265 3.80598 18.9489 3.21896C19.446 2.73666 20.0197 2.41365 20.7307 2.3871Z" fill="#231F20"></path>
<path d="M28.9683 3.91808C28.9639 3.3596 29.074 2.80615 29.2919 2.29192C29.5098 1.77769 29.8309 1.31363 30.2353 0.928405C31.7353 -0.490474 33.9226 -0.251536 35.1896 1.42988C35.7475 2.19351 36.0528 3.1124 36.0628 4.05807C36.0729 5.00373 35.7872 5.9289 35.2456 6.70422C33.725 8.81041 30.75 8.5523 29.5067 6.19242C29.137 5.49233 28.9517 4.70961 28.9683 3.91808V3.91808Z" fill="#231F20"></path>
<path d="M43.9517 24.9712C44.0239 22.8797 44.4236 20.9195 44.9841 19.0036C46.1154 15.1231 47.3263 11.2647 48.5018 7.39742C48.667 6.85465 48.8174 6.30745 48.9959 5.77501C49.0298 5.67324 49.1537 5.53312 49.2452 5.52574C50.3499 5.44315 51.4576 5.43135 52.5225 5.78386C53.813 6.21011 54.4399 7.18356 54.3278 8.54197C54.226 9.8399 53.7953 11.0493 53.3174 12.2293C52.6346 13.924 51.9059 15.601 51.2407 17.303C50.8086 18.4107 50.4856 19.5552 50.5033 20.7662C50.5254 22.0316 51.1139 22.9446 52.2319 23.5198C53.2064 23.9996 54.2682 24.2766 55.3528 24.334C57.2481 24.4726 59.1478 24.5479 61.0461 24.6585C62.254 24.7293 63.4605 24.8266 64.6124 25.2322C65.5947 25.5788 66.4133 26.1334 66.5475 27.2529C66.6126 27.8053 66.5655 28.3652 66.4089 28.8989C66.1729 29.6762 65.7953 30.4107 65.4812 31.1659C65.4118 31.334 65.3042 31.3591 65.1316 31.3325C62.5652 30.9549 59.9959 30.5951 57.4295 30.2101C54.0225 29.6968 50.6154 29.1777 47.3071 28.1806C46.5883 27.9475 45.8845 27.6707 45.1994 27.3517C44.4163 27.0066 44.0048 26.3871 43.9841 25.5198C43.9797 25.3075 43.9517 25.098 43.9517 24.9712Z" fill="#D7191F"></path>
<path d="M58.6746 14.2072C60.8339 14.2072 62.2513 15.4771 62.3383 17.3237C62.3943 18.5036 61.9091 19.4977 61.064 20.303C59.9961 21.3192 58.7188 21.7927 57.2528 21.5346C54.9017 21.1201 53.7955 18.7603 54.9474 16.6231C55.7911 15.0567 57.1598 14.2912 58.6746 14.2072Z" fill="#D7191F"></path>
<path d="M16.7602 61.4343C16.0463 61.3266 15.3162 61.2794 14.6215 61.098C13.1938 60.7263 12.536 59.6747 12.6835 58.2042C12.831 56.8266 13.3103 55.5494 13.8236 54.2853C14.4711 52.6895 15.151 51.1084 15.7823 49.5036C16.1908 48.455 16.4888 47.3679 16.5006 46.2278C16.5153 44.8458 15.8855 43.8591 14.6466 43.2603C13.719 42.8279 12.7183 42.5742 11.6967 42.5125C10.1156 42.3901 8.53156 42.3281 6.94749 42.2367C5.56401 42.157 4.17462 42.1187 2.82654 41.7485C2.56289 41.6771 2.30421 41.5884 2.05221 41.483C0.754271 40.9314 0.211498 39.9476 0.429787 38.5538C0.594979 37.5213 1.02713 36.5877 1.52566 35.6836C1.56135 35.6407 1.60668 35.6068 1.65794 35.5848C1.70921 35.5627 1.76496 35.5531 1.82064 35.5567C4.91799 35.9992 8.01533 36.4314 11.1127 36.9107C14.1746 37.3856 17.2336 37.896 20.1894 38.865C20.7231 39.0558 21.2469 39.2733 21.7587 39.5169C22.6171 39.8989 22.9608 40.598 22.9858 41.5081C23.0257 42.9063 22.7926 44.2721 22.5035 45.629C21.7321 49.2514 20.5979 52.7706 19.4726 56.2927C18.9652 57.8827 18.4711 59.4771 17.977 61.073C17.9268 61.2352 17.8619 61.3207 17.682 61.3237C17.3782 61.3237 17.0743 61.3591 16.7705 61.3783L16.7602 61.4343Z" fill="#54B948"></path>
<path d="M8.06267 52.6142C6.24261 52.6142 4.89452 51.5169 4.67033 49.7927C4.52284 48.6128 4.94172 47.5921 5.74556 46.744C6.83848 45.5921 8.18214 45.0715 9.76621 45.3532C11.7898 45.7204 12.8931 47.5862 12.2883 49.5552C11.7382 51.3384 9.97712 52.6142 8.06267 52.6142Z" fill="#54B948"></path>
<path d="M44.6203 40.4889C44.5347 39.6275 44.9153 39.014 45.6173 38.5538C46.6498 37.8768 47.7811 37.4358 48.9344 37.0405C52.079 35.9609 55.3165 35.2263 58.5569 34.5081C60.7702 34.0164 62.9851 33.5272 65.2014 33.0405C65.257 33.0297 65.3142 33.0316 65.3689 33.0462C65.4236 33.0607 65.4742 33.0875 65.517 33.1246C66.1867 34.1349 66.8165 35.1659 66.9743 36.4048C67.0982 37.3724 66.753 38.1349 65.9625 38.6939C65.2189 39.198 64.3707 39.5268 63.4816 39.6555C61.8887 39.924 60.2855 40.1378 58.6837 40.3576C57.0495 40.5833 55.399 40.7411 53.8607 41.3812C53.2987 41.6125 52.7763 41.93 52.312 42.3222C51.4197 43.0936 51.3106 44.1541 51.4713 45.2485C51.6749 46.629 52.2575 47.8797 52.8755 49.1128C53.694 50.747 54.551 52.3576 55.3548 54.0021C55.8056 54.8726 56.0902 55.8194 56.194 56.7942C56.2914 57.9151 55.8578 58.7839 54.8666 59.2927C53.7707 59.8576 52.5746 59.9432 51.3725 59.9727C51.3258 59.9628 51.282 59.9421 51.2448 59.9121C51.2077 59.8821 51.1781 59.8437 51.1586 59.8001C49.2678 54.8901 47.0893 50.0892 45.5775 45.0375C45.2029 43.7853 44.9669 42.4889 44.6793 41.2101C44.6424 40.9714 44.6227 40.7304 44.6203 40.4889Z" fill="#8966AC"></path>
<path d="M55.4561 46.8576C55.4708 45.216 56.5917 43.9535 58.3027 43.6718C60.2053 43.3561 62.2584 44.4771 63.0224 46.247C63.9708 48.4166 62.6832 50.5877 60.2879 50.8827C58.1434 51.1467 55.9723 49.6128 55.5313 47.5154C55.487 47.2986 55.4841 47.0759 55.4561 46.8576Z" fill="#8966AC"></path>
<path d="M22.3502 26.4431C22.4136 27.3679 21.9077 27.9417 21.1776 28.3871C20.173 28.9792 19.1048 29.4562 17.9932 29.8089C14.8457 30.8782 11.6097 31.6157 8.3708 32.3325C6.18791 32.8163 4.00502 33.3045 1.82065 33.7779C1.75574 33.7908 1.68873 33.7882 1.62497 33.7706C1.56121 33.7529 1.50246 33.7206 1.4534 33.6762C0.804428 32.6998 0.204133 31.7086 0.0315669 30.5125C-0.115926 29.48 0.255756 28.7013 1.09794 28.1319C1.91652 27.5774 2.85163 27.3089 3.8059 27.1526C5.33835 26.9018 6.87965 26.7101 8.418 26.5066C9.99027 26.2927 11.567 26.1054 13.0611 25.5346C13.8679 25.2263 14.6068 24.8133 15.1009 24.067C15.6791 23.1968 15.6628 22.2396 15.4681 21.2647C15.1732 19.7898 14.4903 18.4535 13.8192 17.1201C13.0153 15.5302 12.1761 13.952 11.4357 12.3281C11.1254 11.605 10.916 10.8427 10.8133 10.0626C10.7238 9.58697 10.7903 9.09514 11.0029 8.66034C11.2155 8.22555 11.5628 7.87105 11.9932 7.64964C12.8015 7.19389 13.6909 7.04197 14.6009 6.95348C14.9028 6.91717 15.2068 6.89993 15.5109 6.90185C15.5723 6.90956 15.6309 6.93159 15.6822 6.96619C15.7334 7.00078 15.7758 7.04695 15.8059 7.10097C17.5463 11.5759 19.4932 15.9712 20.9858 20.5375C21.5139 22.1452 22.0183 23.7603 22.2543 25.4417C22.2926 25.7735 22.3148 26.1039 22.3502 26.4431Z" fill="#FBE700"></path>
<path d="M8.02729 23.1895C6.10103 23.1895 4.37242 21.9638 3.8267 20.2101C3.23673 18.3222 4.30015 16.5036 6.23525 16.0803C7.26172 15.8665 8.33072 16.0225 9.25327 16.5208C10.1758 17.019 10.8925 17.8274 11.2766 18.803C11.4628 19.2879 11.5292 19.8107 11.4701 20.3267C11.411 20.8428 11.2282 21.337 10.9371 21.7672C10.646 22.1974 10.2553 22.551 9.79829 22.7979C9.34125 23.0447 8.83134 23.1775 8.31195 23.185C8.21755 23.1909 8.12168 23.1895 8.02729 23.1895Z" fill="#FBE700"></path>
<path d="M46.2836 64.3974C45.4621 64.3974 44.853 64.0553 44.2895 63.6187C43.3264 62.8709 42.5595 61.9343 41.8161 60.98C40.6671 59.5051 39.5491 58.0022 38.3618 56.5553C37.8365 55.9278 37.2429 55.3608 36.5919 54.865C35.0285 53.6585 33.5049 53.7529 32.0196 55.0597C30.8869 56.0612 30.058 57.3016 29.2409 58.5523C28.3397 59.9328 27.4606 61.3311 26.5388 62.6983C26.0422 63.4699 25.4118 64.1467 24.6775 64.6969C23.6214 65.4609 22.5432 65.4609 21.5108 64.6718C20.6524 64.0154 20.0359 63.1467 19.4946 62.2323C19.4429 62.1452 19.5078 61.9373 19.586 61.8311C20.9361 60.0985 22.2925 58.3704 23.6553 56.6467C25.85 53.8812 28.0329 51.101 30.5595 48.6216C31.2918 47.9302 32.0629 47.2812 32.8692 46.6777C33.5668 46.1334 34.3294 46.1216 35.1199 46.5302C36.2261 47.0936 37.1848 47.8576 38.1126 48.6703C40.5595 50.8075 42.7718 53.1895 44.9695 55.5833C46.5427 57.2922 48.1101 59.0056 49.6715 60.7234C49.7033 60.7648 49.7252 60.8129 49.7357 60.864C49.7461 60.915 49.7449 60.9678 49.732 61.0184C49.2128 62.0803 48.6391 63.1084 47.6907 63.8606C47.2615 64.2087 46.7748 64.421 46.2836 64.3974Z" fill="#4FA5DC"></path>
<path d="M37.9417 62.7603C37.952 64.0376 37.5552 65.0582 36.7116 65.8901C36.1606 66.4352 35.4281 66.7582 34.654 66.7974C33.88 66.8366 33.1186 66.5892 32.5154 66.1025C30.6363 64.6069 30.4269 61.5302 32.0847 59.7986C33.5419 58.2735 35.893 58.4712 37.1349 60.2249C37.6761 60.9579 37.9598 61.8493 37.9417 62.7603V62.7603Z" fill="#4FA5DC"></path>
<path d="M77 30.354V14.646H81.312V30.354H77Z" fill="black"></path>
<path d="M91.1575 30.354L87.3735 22.456V30.354H83.4135V14.646H87.2415L91.0255 22.544V14.646H94.9855V30.354H91.1575Z" fill="black"></path>
<path d="M97.0888 30.354V14.646H101.401V26.482H106.505L106.153 30.354H97.0888Z" fill="black"></path>
<path d="M116.017 30.354L115.467 27.494H111.815L111.243 30.354H107.063L111.111 14.646H116.457L120.329 30.354H116.017ZM113.663 18.056L112.475 24.128H114.829L113.663 18.056Z" fill="black"></path>
<path d="M129.025 30.354L125.241 22.456V30.354H121.281V14.646H125.109L128.893 22.544V14.646H132.853V30.354H129.025Z" fill="black"></path>
<path d="M134.956 30.354V14.646H140.016C142.29 14.646 144.006 15.306 145.164 16.626C146.338 17.9313 146.924 19.8527 146.924 22.39C146.924 24.9567 146.338 26.9293 145.164 28.308C143.991 29.672 142.297 30.354 140.082 30.354H134.956ZM140.368 26.46C141.087 26.46 141.615 26.13 141.952 25.47C142.304 24.81 142.48 23.8053 142.48 22.456C142.48 21.1213 142.304 20.1387 141.952 19.508C141.6 18.8627 141.058 18.54 140.324 18.54H139.18V26.46H140.368Z" fill="black"></path>
<path d="M163.308 24.062C163.22 26.1887 162.656 27.8387 161.614 29.012C160.573 30.1707 159.15 30.75 157.346 30.75C155.337 30.75 153.812 30.0607 152.77 28.682C151.729 27.2887 151.208 25.2647 151.208 22.61C151.208 19.8967 151.744 17.8287 152.814 16.406C153.885 14.9687 155.432 14.25 157.456 14.25C159.084 14.25 160.39 14.7853 161.372 15.856C162.37 16.9267 162.978 18.4667 163.198 20.476L158.952 20.938C158.85 19.9113 158.681 19.1927 158.446 18.782C158.212 18.3567 157.867 18.144 157.412 18.144C156.782 18.144 156.334 18.474 156.07 19.134C155.806 19.794 155.674 20.9013 155.674 22.456C155.674 24.0253 155.814 25.1547 156.092 25.844C156.386 26.5187 156.855 26.856 157.5 26.856C157.999 26.856 158.373 26.636 158.622 26.196C158.886 25.756 159.055 25.0447 159.128 24.062H163.308Z" fill="black"></path>
<path d="M170.339 30.75C168.242 30.75 166.658 30.0607 165.587 28.682C164.517 27.3033 163.981 25.272 163.981 22.588C163.981 19.86 164.524 17.792 165.609 16.384C166.709 14.9613 168.323 14.25 170.449 14.25C172.547 14.25 174.131 14.9393 175.201 16.318C176.272 17.6967 176.807 19.728 176.807 22.412C176.807 25.14 176.257 27.2153 175.157 28.638C174.072 30.046 172.466 30.75 170.339 30.75ZM170.383 26.856C171.087 26.856 171.586 26.526 171.879 25.866C172.187 25.1913 172.341 24.062 172.341 22.478C172.341 20.9087 172.195 19.794 171.901 19.134C171.608 18.474 171.109 18.144 170.405 18.144C169.701 18.144 169.195 18.4813 168.887 19.156C168.594 19.816 168.447 20.938 168.447 22.522C168.447 24.0913 168.594 25.206 168.887 25.866C169.181 26.526 169.679 26.856 170.383 26.856Z" fill="black"></path>
<path d="M185.973 30.354L185.423 27.494H181.771L181.199 30.354H177.019L181.067 14.646H186.413L190.285 30.354H185.973ZM183.619 18.056L182.431 24.128H184.785L183.619 18.056Z" fill="black"></path>
<path d="M191.237 30.354V14.646H195.549V26.482H200.653L200.301 30.354H191.237Z" fill="black"></path>
<path d="M201.711 30.354V14.646H206.023V30.354H201.711Z" fill="black"></path>
<path d="M210.324 30.354V18.518H207.068V14.646H217.892V18.518H214.636V30.354H210.324Z" fill="black"></path>
<path d="M218.942 30.354V14.646H223.254V30.354H218.942Z" fill="black"></path>
<path d="M231.186 30.75C229.088 30.75 227.504 30.0607 226.434 28.682C225.363 27.3033 224.828 25.272 224.828 22.588C224.828 19.86 225.37 17.792 226.456 16.384C227.556 14.9613 229.169 14.25 231.296 14.25C233.393 14.25 234.977 14.9393 236.048 16.318C237.118 17.6967 237.654 19.728 237.654 22.412C237.654 25.14 237.104 27.2153 236.004 28.638C234.918 30.046 233.312 30.75 231.186 30.75ZM231.23 26.856C231.934 26.856 232.432 26.526 232.726 25.866C233.034 25.1913 233.188 24.062 233.188 22.478C233.188 20.9087 233.041 19.794 232.748 19.134C232.454 18.474 231.956 18.144 231.252 18.144C230.548 18.144 230.042 18.4813 229.734 19.156C229.44 19.816 229.294 20.938 229.294 22.522C229.294 24.0913 229.44 25.206 229.734 25.866C230.027 26.526 230.526 26.856 231.23 26.856Z" fill="black"></path>
<path d="M246.99 30.354L243.206 22.456V30.354H239.246V14.646H243.074L246.858 22.544V14.646H250.818V30.354H246.99Z" fill="black"></path>
<path d="M256.155 30.354V14.646H265.263V18.298H260.423V21.224H264.933V24.876H260.423V30.354H256.155Z" fill="black"></path>
<path d="M272.459 30.75C270.361 30.75 268.777 30.0607 267.707 28.682C266.636 27.3033 266.101 25.272 266.101 22.588C266.101 19.86 266.644 17.792 267.729 16.384C268.829 14.9613 270.442 14.25 272.569 14.25C274.666 14.25 276.25 14.9393 277.321 16.318C278.391 17.6967 278.927 19.728 278.927 22.412C278.927 25.14 278.377 27.2153 277.277 28.638C276.191 30.046 274.585 30.75 272.459 30.75ZM272.503 26.856C273.207 26.856 273.705 26.526 273.999 25.866C274.307 25.1913 274.461 24.062 274.461 22.478C274.461 20.9087 274.314 19.794 274.021 19.134C273.727 18.474 273.229 18.144 272.525 18.144C271.821 18.144 271.315 18.4813 271.007 19.156C270.714 19.816 270.567 20.938 270.567 22.522C270.567 24.0913 270.714 25.206 271.007 25.866C271.3 26.526 271.799 26.856 272.503 26.856Z" fill="black"></path>
<path d="M287.603 30.354L285.645 25.074H284.567V30.354H280.519V14.646H285.975C287.735 14.646 289.099 15.0933 290.067 15.988C291.05 16.8827 291.541 18.1367 291.541 19.75C291.541 20.6007 291.358 21.3853 290.991 22.104C290.624 22.808 290.104 23.402 289.429 23.886L292.091 30.354H287.603ZM285.733 21.664C286.305 21.664 286.738 21.51 287.031 21.202C287.339 20.8793 287.493 20.4247 287.493 19.838C287.493 19.266 287.346 18.826 287.053 18.518C286.76 18.21 286.334 18.056 285.777 18.056H284.567V21.664H285.733Z" fill="black"></path>
<path d="M77 52.354V36.646H81.312V52.354H77Z" fill="black"></path>
<path d="M94.2595 52.354V43.51L92.0595 52.354H89.3975L87.2195 43.51V52.354H83.4135V36.646H88.4735L90.8055 46.59L93.1155 36.646H98.1755V52.354H94.2595Z" fill="black"></path>
<path d="M111.136 52.354V43.51L108.936 52.354H106.274L104.096 43.51V52.354H100.29V36.646H105.35L107.682 46.59L109.992 36.646H115.052V52.354H111.136Z" fill="black"></path>
<path d="M117.166 52.354V36.646H121.478V52.354H117.166Z" fill="black"></path>
<path d="M131.324 46.634H129.74V43.378H135.284V51.034C134.492 51.5913 133.612 52.0167 132.644 52.31C131.691 52.6033 130.693 52.75 129.652 52.75C127.481 52.75 125.839 52.068 124.724 50.704C123.609 49.3253 123.052 47.2867 123.052 44.588C123.052 41.86 123.602 39.792 124.702 38.384C125.802 36.9613 127.415 36.25 129.542 36.25C132.886 36.25 134.778 37.988 135.218 41.464L130.884 41.882C130.796 41.2513 130.635 40.7893 130.4 40.496C130.165 40.2027 129.835 40.056 129.41 40.056C128.735 40.056 128.244 40.408 127.936 41.112C127.628 41.816 127.474 42.9233 127.474 44.434C127.474 45.9887 127.665 47.1327 128.046 47.866C128.442 48.5847 129.058 48.944 129.894 48.944C130.437 48.944 130.913 48.8267 131.324 48.592V46.634Z" fill="black"></path>
<path d="M144.06 52.354L142.102 47.074H141.024V52.354H136.976V36.646H142.432C144.192 36.646 145.556 37.0933 146.524 37.988C147.506 38.8827 147.998 40.1367 147.998 41.75C147.998 42.6007 147.814 43.3853 147.448 44.104C147.081 44.808 146.56 45.402 145.886 45.886L148.548 52.354H144.06ZM142.19 43.664C142.762 43.664 143.194 43.51 143.488 43.202C143.796 42.8793 143.95 42.4247 143.95 41.838C143.95 41.266 143.803 40.826 143.51 40.518C143.216 40.21 142.791 40.056 142.234 40.056H141.024V43.664H142.19Z" fill="black"></path>
<path d="M157.837 52.354L157.287 49.494H153.635L153.063 52.354H148.883L152.931 36.646H158.277L162.149 52.354H157.837ZM155.483 40.056L154.295 46.128H156.649L155.483 40.056Z" fill="black"></path>
<path d="M170.846 52.354L167.062 44.456V52.354H163.102V36.646H166.93L170.714 44.544V36.646H174.674V52.354H170.846Z" fill="black"></path>
<path d="M178.977 52.354V40.518H175.721V36.646H186.545V40.518H183.289V52.354H178.977Z" fill="black"></path>
<path d="M196.351 36.646H200.663V46.502C200.663 48.482 200.186 50.022 199.233 51.122C198.279 52.2073 196.937 52.75 195.207 52.75C191.687 52.75 189.883 50.6453 189.795 46.436H194.019C194.048 47.316 194.151 47.9393 194.327 48.306C194.517 48.6727 194.818 48.856 195.229 48.856C195.625 48.856 195.911 48.6947 196.087 48.372C196.263 48.0347 196.351 47.492 196.351 46.744V36.646Z" fill="black"></path>
<path d="M209.546 36.646H213.858V46.414C213.858 48.482 213.359 50.0587 212.362 51.144C211.379 52.2147 209.942 52.75 208.05 52.75C206.158 52.75 204.713 52.2147 203.716 51.144C202.733 50.0587 202.242 48.482 202.242 46.414V36.646H206.554V46.744C206.554 47.4773 206.671 48.0127 206.906 48.35C207.14 48.6873 207.522 48.856 208.05 48.856C208.578 48.856 208.959 48.6873 209.194 48.35C209.428 48.0127 209.546 47.4773 209.546 46.744V36.646Z" fill="black"></path>
<path d="M219.052 46.018C217.674 45.6513 216.662 45.0867 216.016 44.324C215.386 43.5467 215.07 42.4833 215.07 41.134C215.07 39.638 215.562 38.45 216.544 37.57C217.527 36.69 218.869 36.25 220.57 36.25C222.184 36.25 223.423 36.646 224.288 37.438C225.154 38.2153 225.682 39.4253 225.872 41.068L221.736 41.464C221.634 40.7893 221.487 40.3273 221.296 40.078C221.12 39.8287 220.827 39.704 220.416 39.704C220.05 39.704 219.764 39.814 219.558 40.034C219.368 40.254 219.272 40.562 219.272 40.958C219.272 41.354 219.36 41.6547 219.536 41.86C219.712 42.0653 220.006 42.2193 220.416 42.322L222.022 42.762C223.504 43.1727 224.567 43.7593 225.212 44.522C225.858 45.27 226.18 46.2967 226.18 47.602C226.18 49.23 225.689 50.4987 224.706 51.408C223.738 52.3027 222.367 52.75 220.592 52.75C216.97 52.75 215.07 50.9093 214.894 47.228H219.118C219.177 47.9613 219.331 48.4893 219.58 48.812C219.83 49.1347 220.196 49.296 220.68 49.296C221.091 49.296 221.406 49.1787 221.626 48.944C221.861 48.6947 221.978 48.35 221.978 47.91C221.978 47.5287 221.883 47.228 221.692 47.008C221.502 46.7733 221.201 46.5973 220.79 46.48L219.052 46.018Z" fill="black"></path>
<path d="M229.607 52.354V40.518H226.351V36.646H237.175V40.518H233.919V52.354H229.607Z" fill="black"></path>
<path d="M238.225 52.354V36.646H242.537V52.354H238.225Z" fill="black"></path>
<path d="M256.21 46.062C256.122 48.1887 255.558 49.8387 254.516 51.012C253.475 52.1707 252.052 52.75 250.248 52.75C248.239 52.75 246.714 52.0607 245.672 50.682C244.631 49.2887 244.11 47.2647 244.11 44.61C244.11 41.8967 244.646 39.8287 245.716 38.406C246.787 36.9687 248.334 36.25 250.358 36.25C251.986 36.25 253.292 36.7853 254.274 37.856C255.272 38.9267 255.88 40.4667 256.1 42.476L251.854 42.938C251.752 41.9113 251.583 41.1927 251.348 40.782C251.114 40.3567 250.769 40.144 250.314 40.144C249.684 40.144 249.236 40.474 248.972 41.134C248.708 41.794 248.576 42.9013 248.576 44.456C248.576 46.0253 248.716 47.1547 248.994 47.844C249.288 48.5187 249.757 48.856 250.402 48.856C250.901 48.856 251.275 48.636 251.524 48.196C251.788 47.756 251.957 47.0447 252.03 46.062H256.21Z" fill="black"></path>
<path d="M257.411 52.354V36.646H266.937V40.298H261.679V42.608H266.607V46.26H261.679V48.702H267.289L266.959 52.354H257.411Z" fill="black"></path>
</svg>